<?xml version="1.0" standalone="no"?>
<!DOCTYPE svg PUBLIC "-//W3C//DTD SVG 20010904//EN"
 "http://www.w3.org/TR/2001/REC-SVG-20010904/DTD/svg10.dtd">
<svg version="1.0" xmlns="http://www.w3.org/2000/svg"
 width="580.000000pt" height="386.000000pt" viewBox="0 0 580.000000 386.000000"
 preserveAspectRatio="xMidYMid meet">

<g transform="translate(0.000000,386.000000) scale(0.100000,-0.100000)"
fill="#000000" stroke="none">
<path d="M0 1930 l0 -1930 2900 0 2900 0 0 1930 0 1930 -2900 0 -2900 0 0
-1930z m2242 978 c9 -7 30 -58 46 -113 70 -231 103 -342 167 -555 37 -124 69
-231 71 -239 11 -34 21 -4 231 699 36 122 62 191 75 203 18 15 44 17 217 17
155 0 201 -3 217 -14 18 -13 19 -28 19 -188 l0 -173 -148 -255 c-82 -140 -153
-259 -158 -265 -5 -5 -9 92 -9 255 0 145 -2 261 -5 259 -4 -4 -64 -197 -175
-564 -28 -93 -80 -266 -116 -382 -64 -211 -65 -214 -177 -407 -61 -107 -113
-193 -115 -191 -1 1 26 69 62 150 l64 147 -18 32 c-10 17 -44 119 -75 226 -32
107 -100 332 -152 500 -52 168 -104 334 -115 370 -11 36 -25 81 -31 100 -10
28 -13 -93 -15 -579 -1 -433 -5 -618 -13 -628 -14 -16 -250 -19 -280 -3 -19
10 -19 30 -19 801 l0 790 23 9 c36 14 410 12 429 -2z m1756 -375 c2 -13 -26
-78 -67 -155 -101 -193 -214 -410 -268 -514 l-46 -90 198 -395 c129 -257 196
-401 192 -412 -6 -15 -26 -17 -163 -17 -126 0 -161 3 -174 15 -9 8 -74 141
-145 295 -71 154 -131 280 -134 280 -3 0 -62 -122 -130 -271 -69 -149 -133
-282 -144 -295 -18 -24 -22 -24 -178 -24 -142 0 -160 2 -166 17 -5 12 60 149
192 409 l200 393 -39 79 -39 79 179 311 c98 171 179 310 181 309 1 -2 -31 -81
-72 -177 -41 -96 -75 -181 -75 -190 0 -18 82 -210 91 -210 3 0 61 126 129 280
76 173 131 287 144 296 17 11 52 14 176 12 151 -3 155 -4 158 -25z"/>
</g>
</svg>
